<svg width="150px" height="" viewBox="0 0 297 73" fill="none" xmlns="http://www.w3.org/2000/svg">
<path d="M18.7646 28.6421L22.3193 14.5088H25.481L20.0977 33H17.5342L13.0396 18.9863L8.66455 33H6.10107L0.734863 14.5088H3.87939L7.51953 28.3516L11.8262 14.5088H14.3726L18.7646 28.6421ZM40.127 33C39.9447 32.6354 39.7965 31.986 39.6826 31.0518C38.2129 32.5785 36.4583 33.3418 34.4189 33.3418C32.596 33.3418 31.0978 32.8291 29.9243 31.8037C28.7622 30.7669 28.1812 29.4567 28.1812 27.873C28.1812 25.9476 28.9103 24.4551 30.3687 23.3955C31.8384 22.3245 33.9006 21.7891 36.5552 21.7891H39.6313V20.3364C39.6313 19.2313 39.3009 18.354 38.6401 17.7046C37.9793 17.0438 37.0052 16.7134 35.7178 16.7134C34.5898 16.7134 33.6442 16.9982 32.8809 17.5679C32.1175 18.1375 31.7358 18.8268 31.7358 19.6357H28.5571C28.5571 18.7129 28.8818 17.8242 29.5312 16.9697C30.1921 16.1038 31.0807 15.4202 32.1973 14.9189C33.3252 14.4176 34.5614 14.167 35.9058 14.167C38.0363 14.167 39.7054 14.7025 40.9131 15.7734C42.1208 16.833 42.7474 18.297 42.793 20.1655V28.6763C42.793 30.3739 43.0094 31.724 43.4424 32.7266V33H40.127ZM34.8804 30.5903C35.8716 30.5903 36.8115 30.334 37.7002 29.8213C38.5889 29.3086 39.2326 28.6421 39.6313 27.8218V24.0278H37.1533C33.2796 24.0278 31.3428 25.1615 31.3428 27.4287C31.3428 28.4199 31.6732 29.1947 32.334 29.7529C32.9948 30.3112 33.8436 30.5903 34.8804 30.5903ZM58.5156 28.0952C58.5156 27.2407 58.1909 26.5799 57.5415 26.1128C56.9035 25.6343 55.7812 25.2241 54.1748 24.8823C52.5798 24.5405 51.3094 24.1304 50.3638 23.6519C49.4295 23.1733 48.7345 22.6037 48.2788 21.9429C47.8345 21.2821 47.6123 20.4959 47.6123 19.5845C47.6123 18.0692 48.2503 16.7874 49.5264 15.7393C50.8138 14.6911 52.4544 14.167 54.4482 14.167C56.5446 14.167 58.2422 14.7082 59.541 15.7905C60.8512 16.8729 61.5063 18.2572 61.5063 19.9434H58.3276C58.3276 19.0775 57.9574 18.3312 57.2168 17.7046C56.4876 17.078 55.5648 16.7646 54.4482 16.7646C53.2975 16.7646 52.3975 17.0153 51.748 17.5166C51.0986 18.0179 50.7739 18.673 50.7739 19.4819C50.7739 20.2453 51.0758 20.8206 51.6797 21.208C52.2835 21.5954 53.3716 21.9657 54.9438 22.3188C56.5275 22.672 57.8092 23.0936 58.7891 23.5835C59.7689 24.0734 60.4924 24.6659 60.9595 25.3608C61.438 26.0444 61.6772 26.8818 61.6772 27.873C61.6772 29.5251 61.0164 30.8524 59.6948 31.855C58.3732 32.8462 56.6585 33.3418 54.5508 33.3418C53.0697 33.3418 51.7594 33.0798 50.6201 32.5557C49.4808 32.0316 48.5864 31.3024 47.937 30.3682C47.299 29.4225 46.98 28.4028 46.98 27.3091H50.1416C50.1986 28.3687 50.6201 29.2118 51.4062 29.8384C52.2038 30.4536 53.252 30.7612 54.5508 30.7612C55.7471 30.7612 56.7041 30.522 57.4219 30.0435C58.151 29.5535 58.5156 28.9041 58.5156 28.0952ZM70.0854 10.0312V14.5088H73.5376V16.9526H70.0854V28.4199C70.0854 29.1605 70.2393 29.7188 70.5469 30.0947C70.8545 30.4593 71.3786 30.6416 72.1191 30.6416C72.4837 30.6416 72.985 30.5732 73.623 30.4365V33C72.7913 33.2279 71.9824 33.3418 71.1963 33.3418C69.7835 33.3418 68.7183 32.9146 68.0005 32.0601C67.2827 31.2056 66.9238 29.9922 66.9238 28.4199V16.9526H63.5571V14.5088H66.9238V10.0312H70.0854ZM84.9194 33.3418C82.4129 33.3418 80.3735 32.5215 78.8013 30.8809C77.229 29.2288 76.4429 27.0243 76.4429 24.2671V23.686C76.4429 21.8517 76.7904 20.2168 77.4854 18.7812C78.1917 17.3343 79.1715 16.2064 80.4248 15.3975C81.6895 14.5771 83.0566 14.167 84.5264 14.167C86.9303 14.167 88.7988 14.9588 90.1318 16.5425C91.4648 18.1261 92.1313 20.3934 92.1313 23.3442V24.6602H79.6045C79.6501 26.4831 80.1799 27.9585 81.1938 29.0864C82.2192 30.203 83.5181 30.7612 85.0903 30.7612C86.2069 30.7612 87.1525 30.5334 87.9272 30.0776C88.702 29.6219 89.3799 29.0181 89.9609 28.2661L91.8921 29.77C90.3426 32.1512 88.0184 33.3418 84.9194 33.3418ZM84.5264 16.7646C83.2503 16.7646 82.1794 17.2318 81.3135 18.166C80.4476 19.0889 79.9121 20.3877 79.707 22.0625H88.9697V21.8232C88.8786 20.2168 88.4456 18.9749 87.6709 18.0977C86.8962 17.209 85.848 16.7646 84.5264 16.7646Z" fill="white"/>
<path d="M111.46 23.9595C111.46 26.785 110.811 29.0579 109.512 30.7783C108.213 32.4873 106.47 33.3418 104.282 33.3418C101.947 33.3418 100.141 32.5158 98.8647 30.8638L98.7109 33H95.8057V6.75H98.9673V16.5425C100.243 14.9588 102.004 14.167 104.248 14.167C106.493 14.167 108.253 15.0158 109.529 16.7134C110.816 18.411 111.46 20.7352 111.46 23.686V23.9595ZM108.298 23.6006C108.298 21.4473 107.882 19.7839 107.051 18.6104C106.219 17.4368 105.023 16.8501 103.462 16.8501C101.377 16.8501 99.8787 17.8185 98.9673 19.7554V27.7534C99.9357 29.6903 101.445 30.6587 103.496 30.6587C105.011 30.6587 106.191 30.0719 107.034 28.8984C107.877 27.7249 108.298 25.959 108.298 23.6006ZM114.622 23.5835C114.622 21.772 114.975 20.1427 115.681 18.6958C116.399 17.2489 117.39 16.1323 118.655 15.3462C119.931 14.5601 121.383 14.167 123.013 14.167C125.531 14.167 127.564 15.0386 129.114 16.7817C130.675 18.5249 131.455 20.8434 131.455 23.7373V23.9595C131.455 25.7596 131.108 27.3774 130.413 28.813C129.729 30.2371 128.743 31.348 127.456 32.1455C126.18 32.943 124.71 33.3418 123.047 33.3418C120.54 33.3418 118.507 32.4702 116.946 30.7271C115.396 28.9839 114.622 26.6768 114.622 23.8057V23.5835ZM117.8 23.9595C117.8 26.0103 118.273 27.6566 119.219 28.8984C120.176 30.1403 121.452 30.7612 123.047 30.7612C124.653 30.7612 125.929 30.1346 126.875 28.8813C127.821 27.6167 128.293 25.8507 128.293 23.5835C128.293 21.5555 127.809 19.9149 126.841 18.6616C125.884 17.397 124.608 16.7646 123.013 16.7646C121.452 16.7646 120.193 17.3856 119.236 18.6274C118.279 19.8693 117.8 21.6466 117.8 23.9595ZM134.583 23.5835C134.583 21.772 134.936 20.1427 135.642 18.6958C136.36 17.2489 137.351 16.1323 138.616 15.3462C139.892 14.5601 141.344 14.167 142.974 14.167C145.492 14.167 147.525 15.0386 149.075 16.7817C150.636 18.5249 151.416 20.8434 151.416 23.7373V23.9595C151.416 25.7596 151.069 27.3774 150.374 28.813C149.69 30.2371 148.704 31.348 147.417 32.1455C146.141 32.943 144.671 33.3418 143.008 33.3418C140.501 33.3418 138.468 32.4702 136.907 30.7271C135.357 28.9839 134.583 26.6768 134.583 23.8057V23.5835ZM137.761 23.9595C137.761 26.0103 138.234 27.6566 139.18 28.8984C140.137 30.1403 141.413 30.7612 143.008 30.7612C144.614 30.7612 145.89 30.1346 146.836 28.8813C147.782 27.6167 148.254 25.8507 148.254 23.5835C148.254 21.5555 147.77 19.9149 146.802 18.6616C145.845 17.397 144.569 16.7646 142.974 16.7646C141.413 16.7646 140.154 17.3856 139.197 18.6274C138.24 19.8693 137.761 21.6466 137.761 23.9595ZM160.542 24.438L158.56 26.5059V33H155.398V6.75H158.56V22.6265L160.251 20.5928L166.011 14.5088H169.856L162.661 22.2334L170.693 33H166.985L160.542 24.438Z" fill="#62FF00"/>
<g clip-path="url(#clip0)">
<path fill-rule="evenodd" clip-rule="evenodd" d="M208 44C205.897 44 203.93 43.1658 202.458 41.6515C201.765 40.9365 201.222 40.1023 200.852 39.204C198.016 40.403 194.631 39.743 192.442 37.5558C190.965 36.0782 190.164 34.1092 190.186 32.0173C190.197 31.0072 190.396 30.0318 190.77 29.1317C187.941 27.984 186 25.256 186 22C186 18.7697 187.975 15.9977 190.769 14.85C189.588 12.0413 190.141 8.745 192.442 6.44417C194.608 4.28083 198.085 3.61717 200.859 4.7795C201.231 3.88483 201.772 3.05433 202.463 2.34483C203.932 0.832333 205.899 0 208 0C211.26 0 213.988 1.94517 215.134 4.77767C217.935 3.61533 221.374 4.2625 223.556 6.44417C225.864 8.74867 226.416 12.0083 225.213 14.8427C228.018 15.9867 230 18.7642 230 22C230 25.2597 228.053 27.9895 225.222 29.1353C226.414 31.9477 225.86 35.2513 223.556 37.5558C221.387 39.7228 217.904 40.381 215.135 39.2205C213.99 42.0512 211.261 44 208 44ZM198.357 26.048L195.069 29.205C193.485 30.7267 193.416 33.341 195.036 34.9635C196.575 36.5035 199.132 36.5255 200.848 34.8755L203.893 31.7735L203.95 36.2523C203.952 38.3442 205.65 40.3333 208 40.3333C209.989 40.3333 212.048 38.786 212.048 36.1992V31.7735L215.177 34.903C216.776 36.4962 219.444 36.4833 220.964 34.9635C222.372 33.5573 222.733 31.0072 220.903 29.1775L217.775 26.048H222.199C224.786 26.048 226.333 23.9892 226.333 22C226.333 19.8037 224.515 17.9483 222.361 17.9483H218.058L220.876 14.85C222.773 12.8718 222.357 10.428 220.964 9.0365C219.425 7.50017 216.683 7.53133 215.203 9.07133L212.048 12.3585V7.80083C212.048 5.214 209.989 3.66667 208 3.66667C205.652 3.66667 203.892 5.6485 203.95 7.7495L203.936 12.3585L200.823 9.097C199.227 7.50383 196.556 7.5185 195.035 9.0365C193.628 10.4427 193.267 12.9928 195.097 14.8225L198.359 18.0822L193.75 17.9502H193.746C191.485 17.9502 189.667 19.8055 189.667 22C189.667 23.9892 191.212 26.048 193.801 26.048H198.357ZM208 16.5C211.036 16.5 213.5 18.964 213.5 22C213.5 25.036 211.036 27.5 208 27.5C204.964 27.5 202.5 25.036 202.5 22C202.5 18.964 204.964 16.5 208 16.5Z" fill="#62FF00"/>
</g>
<defs>
<clipPath id="clip0">
<rect width="44" height="44" fill="white" transform="translate(186)"/>
</clipPath>
</defs>
</svg>
